<mxfile host="65bd71144e" modified="2021-02-13T07:06:55.725Z" agent="5.0 (Macintosh; Intel Mac OS X 10_16_0) AppleWebKit/537.36 (KHTML, like Gecko) Code/1.47.3 Chrome/78.0.3904.130 Electron/7.3.2 Safari/537.36" version="14.2.4" etag="a14k5henNjipylNk7l-h" type="embed">
    <diagram id="E-lc-3h8dPobjNc6Uwgz" name="ui.cpp">
        <mxGraphModel dx="981" dy="644" grid="1" gridSize="10" guides="1" tooltips="1" connect="1" arrows="1" fold="1" page="1" pageScale="1" pageWidth="827" pageHeight="1169" math="0" shadow="0">
            <root>
                <mxCell id="0"/>
                <mxCell id="1" parent="0"/>
            </root>
        </mxGraphModel>
    </diagram>
</mxfile>